<svg width="1200" height="600" xmlns="http://www.w3.org/2000/svg">
  <!-- Background gradient -->
  <defs>
    <linearGradient id="bgGrad" x1="0%" y1="0%" x2="100%" y2="100%">
      <stop offset="0%" style="stop-color:#667eea;stop-opacity:0.1" />
      <stop offset="100%" style="stop-color:#764ba2;stop-opacity:0.1" />
    </linearGradient>
    <linearGradient id="chartGrad1" x1="0%" y1="0%" x2="0%" y2="100%">
      <stop offset="0%" style="stop-color:#667eea;stop-opacity:1" />
      <stop offset="100%" style="stop-color:#764ba2;stop-opacity:1" />
    </linearGradient>
    <linearGradient id="chartGrad2" x1="0%" y1="0%" x2="0%" y2="100%">
      <stop offset="0%" style="stop-color:#f093fb;stop-opacity:1" />
      <stop offset="100%" style="stop-color:#f5576c;stop-opacity:1" />
    </linearGradient>
  </defs>

  <!-- Background -->
  <rect width="1200" height="600" fill="url(#bgGrad)"/>
  <rect width="1200" height="600" fill="#f9fafb" opacity="0.9"/>

  <!-- Dashboard mockup elements -->
  <!-- Header bar -->
  <rect x="40" y="40" width="1120" height="60" rx="10" fill="#ffffff" opacity="0.8"/>
  <circle cx="80" cy="70" r="15" fill="url(#chartGrad1)" opacity="0.6"/>
  <rect x="110" y="60" width="200" height="8" rx="4" fill="#667eea" opacity="0.3"/>
  <rect x="110" y="77" width="120" height="6" rx="3" fill="#667eea" opacity="0.2"/>

  <!-- Chart 1 - Bar chart -->
  <rect x="40" y="120" width="540" height="200" rx="10" fill="#ffffff" opacity="0.8"/>
  <rect x="60" y="140" width="100" height="6" rx="3" fill="#667eea" opacity="0.4"/>
  <!-- Bars -->
  <rect x="80" y="220" width="40" height="80" rx="4" fill="url(#chartGrad1)" opacity="0.7"/>
  <rect x="140" y="180" width="40" height="120" rx="4" fill="url(#chartGrad1)" opacity="0.7"/>
  <rect x="200" y="210" width="40" height="90" rx="4" fill="url(#chartGrad1)" opacity="0.7"/>
  <rect x="260" y="160" width="40" height="140" rx="4" fill="url(#chartGrad1)" opacity="0.7"/>
  <rect x="320" y="190" width="40" height="110" rx="4" fill="url(#chartGrad1)" opacity="0.7"/>
  <rect x="380" y="200" width="40" height="100" rx="4" fill="url(#chartGrad1)" opacity="0.7"/>
  <rect x="440" y="170" width="40" height="130" rx="4" fill="url(#chartGrad1)" opacity="0.7"/>
  <rect x="500" y="185" width="40" height="115" rx="4" fill="url(#chartGrad1)" opacity="0.7"/>

  <!-- Chart 2 - Line chart -->
  <rect x="620" y="120" width="540" height="200" rx="10" fill="#ffffff" opacity="0.8"/>
  <rect x="640" y="140" width="150" height="6" rx="3" fill="#764ba2" opacity="0.4"/>
  <!-- Line chart path -->
  <path d="M 660 260 L 720 240 L 780 200 L 840 220 L 900 180 L 960 190 L 1020 160 L 1080 170"
        stroke="url(#chartGrad2)" stroke-width="3" fill="none" opacity="0.8"/>
  <!-- Data points -->
  <circle cx="660" cy="260" r="5" fill="url(#chartGrad2)"/>
  <circle cx="720" cy="240" r="5" fill="url(#chartGrad2)"/>
  <circle cx="780" cy="200" r="5" fill="url(#chartGrad2)"/>
  <circle cx="840" cy="220" r="5" fill="url(#chartGrad2)"/>
  <circle cx="900" cy="180" r="5" fill="url(#chartGrad2)"/>
  <circle cx="960" cy="190" r="5" fill="url(#chartGrad2)"/>
  <circle cx="1020" cy="160" r="5" fill="url(#chartGrad2)"/>
  <circle cx="1080" cy="170" r="5" fill="url(#chartGrad2)"/>

  <!-- Metrics cards -->
  <rect x="40" y="340" width="260" height="100" rx="10" fill="#ffffff" opacity="0.8"/>
  <circle cx="80" cy="375" r="20" fill="url(#chartGrad1)" opacity="0.3"/>
  <rect x="120" y="365" width="80" height="8" rx="4" fill="#667eea" opacity="0.3"/>
  <rect x="120" y="380" width="150" height="16" rx="4" fill="#667eea" opacity="0.6"/>
  <rect x="120" y="405" width="100" height="6" rx="3" fill="#667eea" opacity="0.2"/>

  <rect x="320" y="340" width="260" height="100" rx="10" fill="#ffffff" opacity="0.8"/>
  <circle cx="360" cy="375" r="20" fill="url(#chartGrad2)" opacity="0.3"/>
  <rect x="400" y="365" width="80" height="8" rx="4" fill="#764ba2" opacity="0.3"/>
  <rect x="400" y="380" width="150" height="16" rx="4" fill="#764ba2" opacity="0.6"/>
  <rect x="400" y="405" width="100" height="6" rx="3" fill="#764ba2" opacity="0.2"/>

  <rect x="600" y="340" width="260" height="100" rx="10" fill="#ffffff" opacity="0.8"/>
  <circle cx="640" cy="375" r="20" fill="url(#chartGrad1)" opacity="0.3"/>
  <rect x="680" y="365" width="80" height="8" rx="4" fill="#667eea" opacity="0.3"/>
  <rect x="680" y="380" width="150" height="16" rx="4" fill="#667eea" opacity="0.6"/>
  <rect x="680" y="405" width="100" height="6" rx="3" fill="#667eea" opacity="0.2"/>

  <rect x="880" y="340" width="280" height="100" rx="10" fill="#ffffff" opacity="0.8"/>
  <circle cx="920" cy="375" r="20" fill="url(#chartGrad2)" opacity="0.3"/>
  <rect x="960" y="365" width="80" height="8" rx="4" fill="#764ba2" opacity="0.3"/>
  <rect x="960" y="380" width="150" height="16" rx="4" fill="#764ba2" opacity="0.6"/>
  <rect x="960" y="405" width="100" height="6" rx="3" fill="#764ba2" opacity="0.2"/>

  <!-- Feature importance chart -->
  <rect x="40" y="460" width="540" height="100" rx="10" fill="#ffffff" opacity="0.8"/>
  <rect x="60" y="475" width="150" height="6" rx="3" fill="#667eea" opacity="0.4"/>
  <rect x="80" y="495" width="200" height="12" rx="6" fill="url(#chartGrad1)" opacity="0.6"/>
  <rect x="80" y="515" width="150" height="12" rx="6" fill="url(#chartGrad1)" opacity="0.5"/>
  <rect x="80" y="535" width="120" height="12" rx="6" fill="url(#chartGrad1)" opacity="0.4"/>

  <!-- SHAP values visualization -->
  <rect x="620" y="460" width="540" height="100" rx="10" fill="#ffffff" opacity="0.8"/>
  <rect x="640" y="475" width="200" height="6" rx="3" fill="#764ba2" opacity="0.4"/>
  <!-- SHAP dots -->
  <circle cx="680" cy="500" r="4" fill="#667eea" opacity="0.6"/>
  <circle cx="720" cy="510" r="4" fill="#f093fb" opacity="0.6"/>
  <circle cx="760" cy="495" r="4" fill="#667eea" opacity="0.6"/>
  <circle cx="800" cy="520" r="4" fill="#f5576c" opacity="0.6"/>
  <circle cx="840" cy="505" r="4" fill="#667eea" opacity="0.6"/>
  <circle cx="880" cy="490" r="4" fill="#f093fb" opacity="0.6"/>
  <circle cx="920" cy="515" r="4" fill="#764ba2" opacity="0.6"/>
  <circle cx="960" cy="500" r="4" fill="#667eea" opacity="0.6"/>
  <circle cx="1000" cy="525" r="4" fill="#f5576c" opacity="0.6"/>
  <circle cx="680" cy="530" r="4" fill="#f5576c" opacity="0.6"/>
  <circle cx="720" cy="540" r="4" fill="#667eea" opacity="0.6"/>
  <circle cx="760" cy="535" r="4" fill="#f093fb" opacity="0.6"/>
  <circle cx="800" cy="545" r="4" fill="#667eea" opacity="0.6"/>
  <circle cx="840" cy="538" r="4" fill="#764ba2" opacity="0.6"/>
  <circle cx="880" cy="532" r="4" fill="#667eea" opacity="0.6"/>
  <circle cx="920" cy="548" r="4" fill="#f093fb" opacity="0.6"/>
  <circle cx="960" cy="540" r="4" fill="#f5576c" opacity="0.6"/>
  <circle cx="1000" cy="535" r="4" fill="#667eea" opacity="0.6"/>

  <!-- Main title text -->
  <text x="600" y="310" font-family="'Poppins', sans-serif" font-size="36" font-weight="600"
        fill="#667eea" text-anchor="middle" opacity="0.8">
    Dashboard Preview
  </text>

  <!-- Subtitle -->
  <text x="600" y="345" font-family="'Poppins', sans-serif" font-size="16" font-weight="400"
        fill="#6b7280" text-anchor="middle" opacity="0.6">
    Customer Churn Prediction &amp; Explainability
  </text>
</svg>
